HIERARCHY
ROOT Hips
{
	OFFSET 0.000000 0.000000 0.000000 
	CHANNELS 6 Xposition Yposition Zposition Zrotation Yrotation Xrotation
	JOINT LeftUpLeg
	{
		OFFSET 1.363060 -1.794630 0.839290 
		CHANNELS 3 Zrotation Yrotation Xrotation
		JOINT LeftLeg
		{
			OFFSET 2.448110 -6.726130 0.000000 
			CHANNELS 3 Zrotation Yrotation Xrotation
			JOINT LeftFoot
			{
				OFFSET 2.562200 -7.039590 0.000000 
				CHANNELS 3 Zrotation Yrotation Xrotation
				JOINT LeftToeBase
				{
					OFFSET 0.157640 -0.433110 2.322550 
					CHANNELS 3 Zrotation Yrotation Xrotation
					End Site
					{
						OFFSET 0.000000 0.000000 0.000000 
					}
				}
			}
		}
	}
	JOINT RightUpLeg
	{
		OFFSET -1.305520 -1.794630 0.839290 
		CHANNELS 3 Zrotation Yrotation Xrotation
		JOINT RightLeg
		{
			OFFSET -2.542530 -6.985550 0.000000 
			CHANNELS 3 Zrotation Yrotation Xrotation
			JOINT RightFoot
			{
				OFFSET -2.568260 -7.056230 0.000000 
				CHANNELS 3 Zrotation Yrotation Xrotation
				JOINT RightToeBase
				{
					OFFSET -0.164730 -0.452590 2.363150 
					CHANNELS 3 Zrotation Yrotation Xrotation
					End Site
					{
						OFFSET 0.000000 0.000000 0.000000 
					}
				}
			}
		}
	}
	JOINT Spine
	{
		OFFSET 0.028270 2.035590 -0.193380 
		CHANNELS 3 Zrotation Yrotation Xrotation
		JOINT Spine1
		{
			OFFSET 0.056720 2.048850 -0.042750 
			CHANNELS 3 Zrotation Yrotation Xrotation
			JOINT Neck1
			{
				OFFSET -0.054170 1.746240 0.172020 
				CHANNELS 3 Zrotation Yrotation Xrotation
				JOINT Head
				{
					OFFSET 0.104070 1.761360 -0.123970 
					CHANNELS 3 Zrotation Yrotation Xrotation
					End Site
					{
						OFFSET 0.000000 0.000000 0.000000 
					}
				}
			}
			JOINT LeftArm
			{
				OFFSET 3.362410 1.200890 -0.311210 
				CHANNELS 3 Zrotation Yrotation Xrotation
				JOINT LeftForeArm
				{
					OFFSET 4.983000 -0.000000 -0.000000 
					CHANNELS 3 Zrotation Yrotation Xrotation
					JOINT LeftHand
					{
						OFFSET 3.483560 -0.000000 -0.000000 
						CHANNELS 3 Zrotation Yrotation Xrotation
						JOINT LeftHandIndex1
						{
							OFFSET 0.715260 -0.000000 -0.000000 
							CHANNELS 3 Zrotation Yrotation Xrotation
							End Site
							{
								OFFSET 0.000000 0.000000 0.000000 
							}
						}
					}
				}
			}
			JOINT RightArm
			{
				OFFSET -3.136600 1.374050 -0.404650 
				CHANNELS 3 Zrotation Yrotation Xrotation
				JOINT RightForeArm
				{
					OFFSET -5.241900 -0.000000 -0.000000 
					CHANNELS 3 Zrotation Yrotation Xrotation
					JOINT RightHand
					{
						OFFSET -3.444170 -0.000000 -0.000000 
						CHANNELS 3 Zrotation Yrotation Xrotation
						JOINT RightHandIndex1
						{
							OFFSET -0.622530 -0.000000 -0.000000 
							CHANNELS 3 Zrotation Yrotation Xrotation
							End Site
							{
								OFFSET 0.000000 0.000000 0.000000 
							}
						}
					}
				}
			}
		}
	}
}
MOTION
Frames: 5
Frame Time: 0.041667
3.642415 18.187661 2.499135 -176.536237 -26.617859 -173.477474 -34.091925 -36.592303 22.887358 -11.761137 -2.092494 -1.537049 10.206029 -16.772814 -51.535765 0.329600 -3.689800 -10.205600 43.056453 30.100560 20.553272 14.060595 5.286405 -6.101806 -4.511999 -18.794068 -47.274144 -0.391500 -4.017900 11.126900 -1.153364 3.285153 -7.667850 -5.886345 -0.085021 -21.318184 -2.725179 10.471552 19.798582 -4.333500 4.197900 15.846700 -12.183693 22.496524 -18.952773 15.875279 -22.971421 -5.547133 -0.911248 -0.762803 -15.996929 -7.125000 0.000000 0.000000 7.136644 -40.061452 0.887413 -18.543374 26.839608 -5.089081 -0.997276 -2.342141 -38.060675 7.125000 0.000000 0.000000 
3.643934 18.186467 2.507707 -176.556274 -26.692356 -173.384576 -33.806728 -36.291454 22.410767 -11.756466 -2.045687 -1.427445 9.986363 -16.734035 -50.735157 0.288600 -3.454800 -9.547600 42.960317 30.129836 20.411332 14.050078 5.259407 -6.086109 -4.515336 -18.780187 -47.316270 -0.393800 -4.029500 11.159700 -1.099616 3.221131 -7.690305 -5.775351 -0.097200 -21.357064 -2.690192 10.586332 19.876535 -4.319700 4.253200 15.962500 -12.982132 23.129881 -18.748665 15.999267 -23.123428 -5.598474 -0.863465 -0.716103 -16.578295 -7.125000 0.000000 0.000000 8.647446 -39.849088 -0.837320 -18.365745 26.473943 -5.035682 -1.007265 -2.385385 -37.277014 7.125000 0.000000 0.000000 
3.647624 18.184405 2.517148 -176.613004 -26.754533 -173.235668 -33.731708 -36.476615 22.218362 -11.745231 -2.073847 -1.537795 9.915970 -16.587410 -50.594280 0.273600 -3.364500 -9.295200 42.811095 30.206123 20.176547 14.038858 5.186390 -5.995125 -4.467349 -18.885368 -47.251719 -0.383700 -3.977700 11.014000 -1.096293 3.208847 -7.705381 -5.766900 -0.096654 -21.359220 -2.612483 10.492878 19.975181 -4.283800 4.210200 16.038700 -13.715271 23.532210 -18.935525 16.050662 -23.163389 -5.611346 -0.827540 -0.659160 -16.713741 -7.125000 0.000000 0.000000 9.824565 -39.984926 -1.891540 -18.180914 26.161590 -4.985321 -1.018688 -2.386121 -37.103264 7.125000 0.000000 0.000000 
3.649577 18.181909 2.525286 -176.699180 -26.790002 -173.088269 -33.792812 -36.641502 22.137214 -11.780027 -2.093499 -1.589141 9.884660 -15.547128 -50.772444 0.359300 -3.850700 -10.657000 42.650240 30.289915 19.991188 14.023421 5.135902 -5.936508 -4.426849 -18.918023 -47.166882 -0.370900 -3.911800 10.828600 -1.096941 3.225973 -7.718871 -5.749512 -0.076742 -21.385978 -2.466127 10.421952 19.984332 -4.175300 4.172600 15.993900 -14.521485 23.535592 -19.808177 15.975928 -23.006964 -5.559820 -0.810529 -0.569225 -16.260593 -7.125000 0.000000 0.000000 10.507176 -40.491122 -1.730168 -18.213891 26.198145 -5.010777 -0.971925 -2.450354 -38.066177 7.125000 0.000000 0.000000 
3.648275 18.180607 2.531037 -176.784048 -26.821273 -172.979055 -34.054248 -37.020602 22.361752 -11.790195 -2.112764 -1.662268 9.990668 -15.034150 -51.315585 0.406200 -4.091400 -11.333900 42.491199 30.345687 19.894483 14.004026 5.123881 -5.935477 -4.444102 -18.804900 -47.201883 -0.378500 -3.951000 10.938800 -1.083246 3.232665 -7.724832 -5.688585 -0.050596 -21.383390 -2.342039 10.377692 19.977764 -4.077500 4.147200 15.959000 -15.289865 23.434133 -20.488902 15.802390 -22.780677 -5.507534 -0.795923 -0.547464 -16.098771 -7.125000 0.000000 0.000000 11.227626 -40.898814 -1.854422 -18.260300 26.241950 -5.044249 -0.950090 -2.472344 -38.802578 7.125000 0.000000 0.000000 
